<?xml version="1.0" standalone="no"?>
<!DOCTYPE svg PUBLIC "-//W3C//DTD SVG 20010904//EN"
 "http://www.w3.org/TR/2001/REC-SVG-20010904/DTD/svg10.dtd">
<svg version="1.0" xmlns="http://www.w3.org/2000/svg"
 width="438.000000pt" height="438.000000pt" viewBox="0 0 438.000000 438.000000"
 preserveAspectRatio="xMidYMid meet">
<metadata>
Created by potrace 1.11, written by Peter Selinger 2001-2013
</metadata>
<g transform="translate(0.000000,438.000000) scale(0.100000,-0.100000)"
fill="#000000" stroke="none">
<path d="M1667 4314 c-1 -1 -27 -5 -57 -9 -68 -9 -90 -13 -115 -18 -11 -3 -42
-8 -69 -11 -64 -9 -74 -15 -127 -77 -81 -96 -124 -134 -204 -184 -44 -27 -81
-53 -83 -57 -2 -5 -8 -8 -13 -8 -6 0 -37 -18 -69 -40 -32 -22 -62 -40 -65 -40
-38 0 -108 -104 -104 -154 0 -5 -3 -12 -8 -15 -4 -3 -23 -51 -42 -106 -51
-149 -61 -167 -113 -200 -26 -16 -50 -37 -54 -45 -3 -8 -5 -65 -4 -125 1 -108
0 -112 -34 -177 -19 -36 -32 -69 -29 -72 4 -3 2 -6 -4 -6 -11 0 -40 -59 -35
-72 1 -5 -2 -8 -6 -8 -15 0 -29 -44 -25 -80 2 -19 4 -50 6 -67 1 -18 5 -33 8
-33 3 0 6 -6 6 -12 0 -7 4 -40 7 -73 12 -95 13 -116 6 -120 -4 -2 -6 -41 -5
-87 1 -69 6 -93 29 -140 25 -52 27 -60 16 -94 -7 -21 -22 -52 -32 -71 -11 -18
-17 -33 -14 -33 3 0 -3 -15 -13 -33 -22 -39 -19 -76 10 -143 11 -27 22 -56 24
-64 2 -8 12 -38 23 -66 15 -37 22 -86 27 -177 10 -184 7 -175 60 -221 27 -22
70 -61 96 -86 l49 -45 2 -82 c2 -46 5 -83 8 -83 3 0 5 -19 4 -42 -1 -72 6 -86
85 -169 42 -45 79 -87 83 -93 6 -11 10 -46 23 -190 3 -26 10 -55 16 -62 6 -8
57 -46 113 -86 55 -40 107 -78 113 -84 7 -7 45 -24 85 -39 201 -74 236 -89
273 -108 22 -12 41 -25 43 -29 2 -5 8 -8 14 -8 6 0 33 -14 61 -31 l50 -31 169
4 c136 3 171 6 178 18 9 15 21 30 85 105 29 33 35 48 35 90 5 295 3 2515 -1
2515 -3 0 -4 10 -2 23 8 44 8 617 0 617 -5 0 -6 4 -2 9 5 10 7 410 2 441 -1 8
-43 81 -92 162 l-90 147 -52 16 c-133 38 -162 46 -182 48 -11 1 -21 4 -21 7 0
5 -38 8 -43 4z"/>
<path d="M2646 4313 c-4 -4 -16 -8 -28 -10 -23 -4 -124 -31 -148 -40 -8 -3
-24 -7 -34 -8 -11 -1 -31 -16 -44 -33 -31 -40 -92 -142 -92 -153 0 -5 -4 -9
-10 -9 -5 0 -10 -7 -10 -15 0 -8 -5 -15 -12 -15 -6 0 -9 -3 -5 -6 3 -3 -3 -15
-13 -27 -11 -11 -17 -24 -14 -28 2 -4 1 -10 -4 -13 -4 -2 -6 -229 -5 -503 2
-274 4 -838 6 -1253 2 -416 7 -761 11 -768 4 -7 4 -12 -1 -12 -4 0 -8 -22 -8
-50 0 -27 4 -50 8 -50 4 0 4 -8 0 -17 -10 -22 -10 -54 0 -70 4 -6 4 -14 -1
-17 -8 -5 -7 -75 2 -83 3 -3 1 -16 -4 -29 -6 -14 -6 -24 0 -24 5 0 5 -12 0
-30 -5 -18 -5 -30 0 -30 6 0 6 -10 0 -25 -6 -16 -6 -25 0 -25 6 0 6 -9 0 -25
-5 -13 -6 -26 -2 -29 4 -2 6 -22 5 -43 -4 -56 -4 -84 0 -121 2 -17 -1 -32 -6
-32 -6 0 -6 -5 0 -12 5 -7 8 -22 7 -33 -5 -34 -5 -54 -1 -236 2 -138 6 -180
17 -191 8 -9 38 -42 67 -75 l52 -59 172 0 c127 1 174 5 177 14 2 6 9 12 16 12
8 0 26 10 42 22 16 13 29 21 29 19 0 -3 18 7 40 20 42 26 109 59 129 64 6 1
20 6 31 10 167 67 214 91 285 144 44 34 83 61 85 61 3 0 14 8 26 17 73 62 67
50 74 158 6 103 15 159 26 165 23 15 149 144 150 154 0 6 2 52 5 101 7 149 12
198 22 204 13 8 119 100 154 133 19 19 28 38 29 60 6 205 14 278 38 336 11 28
17 52 13 52 -4 0 -2 4 4 8 6 4 21 35 32 69 21 59 21 65 6 105 -8 24 -20 59
-26 78 -5 19 -14 40 -18 45 -5 6 -9 15 -10 20 -1 6 -6 20 -11 32 -9 24 -6 37
19 93 8 19 15 41 15 48 0 6 5 12 10 12 9 0 7 35 -9 169 -3 25 -5 47 -6 50 0 3
1 8 2 11 4 10 16 82 25 145 3 17 7 41 10 55 4 14 8 32 9 40 2 8 -4 29 -14 45
-10 17 -43 80 -73 140 l-56 110 3 105 c2 109 -4 140 -29 140 -8 0 -15 4 -15 9
0 5 -8 12 -17 15 -39 12 -70 56 -97 132 -15 44 -31 88 -36 99 -10 25 -45 118
-61 167 -8 24 -24 43 -46 55 -18 9 -33 21 -33 25 0 5 -4 8 -10 8 -5 0 -59 32
-121 70 -61 39 -113 70 -115 70 -6 0 -67 42 -74 51 -73 89 -169 194 -177 195
-5 0 -35 4 -68 8 -60 9 -76 11 -117 21 -37 9 -165 15 -172 8z"/>
</g>
</svg>
